<mxfile host="app.diagrams.net" agent="Mozilla/5.0 (X11; Linux x86_64) AppleWebKit/537.36 (KHTML, like Gecko) Chrome/129.0.0.0 Safari/537.36" version="24.7.16">
  <diagram name="Page-1" id="VBrygXB3yHfRK6vAbQcV">
    <mxGraphModel dx="1434" dy="755" grid="1" gridSize="10" guides="1" tooltips="1" connect="1" arrows="1" fold="1" page="1" pageScale="1" pageWidth="850" pageHeight="1100" math="0" shadow="0">
      <root>
        <mxCell id="0" />
        <mxCell id="1" parent="0" />
        <mxCell id="E6C13S41uyOyiJszludX-77" value="" style="group" vertex="1" connectable="0" parent="1">
          <mxGeometry x="40" y="90" width="790" height="580" as="geometry" />
        </mxCell>
        <mxCell id="E6C13S41uyOyiJszludX-2" value="clk" style="text;html=1;align=center;verticalAlign=middle;whiteSpace=wrap;rounded=0;fillColor=#dae8fc;strokeColor=#6c8ebf;" vertex="1" parent="E6C13S41uyOyiJszludX-77">
          <mxGeometry x="610" width="60" height="30" as="geometry" />
        </mxCell>
        <mxCell id="E6C13S41uyOyiJszludX-5" value="" style="group" vertex="1" connectable="0" parent="E6C13S41uyOyiJszludX-77">
          <mxGeometry x="10" y="420" width="120" height="60" as="geometry" />
        </mxCell>
        <mxCell id="E6C13S41uyOyiJszludX-3" value="Divisor de reloj" style="rounded=0;whiteSpace=wrap;html=1;verticalAlign=top;" vertex="1" parent="E6C13S41uyOyiJszludX-5">
          <mxGeometry width="120" height="60" as="geometry" />
        </mxCell>
        <mxCell id="E6C13S41uyOyiJszludX-4" value="clk1" style="text;html=1;align=center;verticalAlign=middle;whiteSpace=wrap;rounded=0;" vertex="1" parent="E6C13S41uyOyiJszludX-5">
          <mxGeometry x="60" y="30" width="60" height="30" as="geometry" />
        </mxCell>
        <mxCell id="E6C13S41uyOyiJszludX-66" value="clk" style="text;html=1;align=center;verticalAlign=middle;whiteSpace=wrap;rounded=0;" vertex="1" parent="E6C13S41uyOyiJszludX-5">
          <mxGeometry y="30" width="60" height="30" as="geometry" />
        </mxCell>
        <mxCell id="E6C13S41uyOyiJszludX-12" value="" style="group" vertex="1" connectable="0" parent="E6C13S41uyOyiJszludX-77">
          <mxGeometry x="30" y="30" width="130" height="130" as="geometry" />
        </mxCell>
        <mxCell id="E6C13S41uyOyiJszludX-9" value="Teclado" style="whiteSpace=wrap;html=1;aspect=fixed;verticalAlign=top;" vertex="1" parent="E6C13S41uyOyiJszludX-12">
          <mxGeometry width="130" height="130" as="geometry" />
        </mxCell>
        <mxCell id="E6C13S41uyOyiJszludX-10" value="Fila" style="text;html=1;align=center;verticalAlign=middle;whiteSpace=wrap;rounded=0;" vertex="1" parent="E6C13S41uyOyiJszludX-12">
          <mxGeometry x="70" y="50" width="60" height="30" as="geometry" />
        </mxCell>
        <mxCell id="E6C13S41uyOyiJszludX-68" style="edgeStyle=orthogonalEdgeStyle;rounded=0;orthogonalLoop=1;jettySize=auto;html=1;exitX=0;exitY=0.5;exitDx=0;exitDy=0;endArrow=none;endFill=0;fillColor=#fa6800;strokeColor=#0537ff;" edge="1" parent="E6C13S41uyOyiJszludX-12" source="E6C13S41uyOyiJszludX-11">
          <mxGeometry relative="1" as="geometry">
            <mxPoint x="490" y="500" as="targetPoint" />
            <Array as="points">
              <mxPoint x="-10" y="65" />
              <mxPoint x="-10" y="360" />
              <mxPoint x="490" y="360" />
            </Array>
          </mxGeometry>
        </mxCell>
        <mxCell id="E6C13S41uyOyiJszludX-11" value="Columna" style="text;html=1;align=center;verticalAlign=middle;whiteSpace=wrap;rounded=0;" vertex="1" parent="E6C13S41uyOyiJszludX-12">
          <mxGeometry y="50" width="60" height="30" as="geometry" />
        </mxCell>
        <mxCell id="E6C13S41uyOyiJszludX-25" value="KeyP" style="text;html=1;align=center;verticalAlign=middle;whiteSpace=wrap;rounded=0;" vertex="1" parent="E6C13S41uyOyiJszludX-12">
          <mxGeometry x="70" y="90" width="60" height="30" as="geometry" />
        </mxCell>
        <mxCell id="E6C13S41uyOyiJszludX-32" style="edgeStyle=orthogonalEdgeStyle;rounded=0;orthogonalLoop=1;jettySize=auto;html=1;entryX=0;entryY=0.5;entryDx=0;entryDy=0;" edge="1" parent="E6C13S41uyOyiJszludX-77" source="E6C13S41uyOyiJszludX-25" target="E6C13S41uyOyiJszludX-31">
          <mxGeometry relative="1" as="geometry" />
        </mxCell>
        <mxCell id="E6C13S41uyOyiJszludX-33" value="" style="group" vertex="1" connectable="0" parent="E6C13S41uyOyiJszludX-77">
          <mxGeometry x="240" y="20" width="170" height="140" as="geometry" />
        </mxCell>
        <mxCell id="E6C13S41uyOyiJszludX-1" value="Key Bounce Elimination" style="rounded=0;whiteSpace=wrap;html=1;verticalAlign=top;container=0;" vertex="1" parent="E6C13S41uyOyiJszludX-33">
          <mxGeometry width="170" height="140" as="geometry" />
        </mxCell>
        <mxCell id="E6C13S41uyOyiJszludX-6" value="clk" style="text;html=1;align=center;verticalAlign=middle;whiteSpace=wrap;rounded=0;container=0;" vertex="1" parent="E6C13S41uyOyiJszludX-33">
          <mxGeometry x="110" y="40" width="60" height="30" as="geometry" />
        </mxCell>
        <mxCell id="E6C13S41uyOyiJszludX-7" value="inhibit" style="text;html=1;align=center;verticalAlign=middle;whiteSpace=wrap;rounded=0;container=0;" vertex="1" parent="E6C13S41uyOyiJszludX-33">
          <mxGeometry x="105" y="80" width="60" height="30" as="geometry" />
        </mxCell>
        <mxCell id="E6C13S41uyOyiJszludX-8" value="Data_Available" style="text;html=1;align=center;verticalAlign=middle;whiteSpace=wrap;rounded=0;container=0;" vertex="1" parent="E6C13S41uyOyiJszludX-33">
          <mxGeometry x="90" y="110" width="60" height="30" as="geometry" />
        </mxCell>
        <mxCell id="E6C13S41uyOyiJszludX-31" value="KeyP" style="text;html=1;align=center;verticalAlign=middle;whiteSpace=wrap;rounded=0;container=0;" vertex="1" parent="E6C13S41uyOyiJszludX-33">
          <mxGeometry y="100" width="60" height="30" as="geometry" />
        </mxCell>
        <mxCell id="E6C13S41uyOyiJszludX-37" style="edgeStyle=orthogonalEdgeStyle;rounded=0;orthogonalLoop=1;jettySize=auto;html=1;entryX=0;entryY=0.5;entryDx=0;entryDy=0;fillColor=#fa6800;strokeColor=#ff4400;" edge="1" parent="E6C13S41uyOyiJszludX-77" source="E6C13S41uyOyiJszludX-4" target="E6C13S41uyOyiJszludX-36">
          <mxGeometry relative="1" as="geometry" />
        </mxCell>
        <mxCell id="E6C13S41uyOyiJszludX-40" value="" style="group" vertex="1" connectable="0" parent="E6C13S41uyOyiJszludX-77">
          <mxGeometry x="250" y="410" width="160" height="140" as="geometry" />
        </mxCell>
        <mxCell id="E6C13S41uyOyiJszludX-35" value="Contador" style="rounded=0;whiteSpace=wrap;html=1;verticalAlign=top;" vertex="1" parent="E6C13S41uyOyiJszludX-40">
          <mxGeometry width="160" height="140" as="geometry" />
        </mxCell>
        <mxCell id="E6C13S41uyOyiJszludX-36" value="clk" style="text;html=1;align=center;verticalAlign=middle;whiteSpace=wrap;rounded=0;" vertex="1" parent="E6C13S41uyOyiJszludX-40">
          <mxGeometry y="40" width="60" height="30" as="geometry" />
        </mxCell>
        <mxCell id="E6C13S41uyOyiJszludX-38" value="cuenta" style="text;html=1;align=center;verticalAlign=middle;whiteSpace=wrap;rounded=0;" vertex="1" parent="E6C13S41uyOyiJszludX-40">
          <mxGeometry x="95" y="100" width="60" height="30" as="geometry" />
        </mxCell>
        <mxCell id="E6C13S41uyOyiJszludX-39" value="inhibit" style="text;html=1;align=center;verticalAlign=middle;whiteSpace=wrap;rounded=0;" vertex="1" parent="E6C13S41uyOyiJszludX-40">
          <mxGeometry y="80" width="60" height="30" as="geometry" />
        </mxCell>
        <mxCell id="E6C13S41uyOyiJszludX-34" style="edgeStyle=orthogonalEdgeStyle;rounded=0;orthogonalLoop=1;jettySize=auto;html=1;strokeColor=#b85450;curved=0;endArrow=none;endFill=0;entryX=0.5;entryY=1;entryDx=0;entryDy=0;fillColor=#f8cecc;" edge="1" parent="E6C13S41uyOyiJszludX-77" source="E6C13S41uyOyiJszludX-6" target="E6C13S41uyOyiJszludX-2">
          <mxGeometry relative="1" as="geometry">
            <mxPoint x="555" y="75" as="targetPoint" />
          </mxGeometry>
        </mxCell>
        <mxCell id="E6C13S41uyOyiJszludX-54" value="" style="group" vertex="1" connectable="0" parent="E6C13S41uyOyiJszludX-77">
          <mxGeometry x="630" y="278.75" width="131.25" height="131.25" as="geometry" />
        </mxCell>
        <mxCell id="E6C13S41uyOyiJszludX-44" value="Sincronizador" style="whiteSpace=wrap;html=1;aspect=fixed;verticalAlign=top;" vertex="1" parent="E6C13S41uyOyiJszludX-54">
          <mxGeometry width="131.25" height="131.25" as="geometry" />
        </mxCell>
        <mxCell id="E6C13S41uyOyiJszludX-46" value="Columna" style="text;html=1;align=left;verticalAlign=middle;whiteSpace=wrap;rounded=0;" vertex="1" parent="E6C13S41uyOyiJszludX-54">
          <mxGeometry y="40.625" width="39.375" height="18.75" as="geometry" />
        </mxCell>
        <mxCell id="E6C13S41uyOyiJszludX-47" value="Fila" style="text;html=1;align=left;verticalAlign=middle;whiteSpace=wrap;rounded=0;" vertex="1" parent="E6C13S41uyOyiJszludX-54">
          <mxGeometry y="68.75" width="39.375" height="18.75" as="geometry" />
        </mxCell>
        <mxCell id="E6C13S41uyOyiJszludX-48" value="clk" style="text;html=1;align=left;verticalAlign=middle;whiteSpace=wrap;rounded=0;" vertex="1" parent="E6C13S41uyOyiJszludX-54">
          <mxGeometry y="18.75" width="39.375" height="18.75" as="geometry" />
        </mxCell>
        <mxCell id="E6C13S41uyOyiJszludX-73" style="edgeStyle=orthogonalEdgeStyle;rounded=0;orthogonalLoop=1;jettySize=auto;html=1;" edge="1" parent="E6C13S41uyOyiJszludX-54" source="E6C13S41uyOyiJszludX-53">
          <mxGeometry relative="1" as="geometry">
            <mxPoint x="101.25" y="241.25" as="targetPoint" />
          </mxGeometry>
        </mxCell>
        <mxCell id="E6C13S41uyOyiJszludX-53" value="Q" style="text;html=1;align=center;verticalAlign=middle;whiteSpace=wrap;rounded=0;" vertex="1" parent="E6C13S41uyOyiJszludX-54">
          <mxGeometry x="71.25" y="101.25" width="60" height="30" as="geometry" />
        </mxCell>
        <mxCell id="E6C13S41uyOyiJszludX-74" value="" style="endArrow=none;html=1;rounded=0;" edge="1" parent="E6C13S41uyOyiJszludX-54">
          <mxGeometry width="50" height="50" relative="1" as="geometry">
            <mxPoint x="131.25" y="171.25" as="sourcePoint" />
            <mxPoint x="71.25" y="191.25" as="targetPoint" />
          </mxGeometry>
        </mxCell>
        <mxCell id="E6C13S41uyOyiJszludX-55" style="edgeStyle=orthogonalEdgeStyle;rounded=0;orthogonalLoop=1;jettySize=auto;html=1;entryX=0;entryY=0.5;entryDx=0;entryDy=0;exitX=1.012;exitY=0.907;exitDx=0;exitDy=0;exitPerimeter=0;fillColor=#76608a;strokeColor=#00ff1e;" edge="1" parent="E6C13S41uyOyiJszludX-77" source="E6C13S41uyOyiJszludX-1" target="E6C13S41uyOyiJszludX-48">
          <mxGeometry relative="1" as="geometry" />
        </mxCell>
        <mxCell id="E6C13S41uyOyiJszludX-57" style="edgeStyle=orthogonalEdgeStyle;rounded=0;orthogonalLoop=1;jettySize=auto;html=1;entryX=0;entryY=0.5;entryDx=0;entryDy=0;fillColor=#a0522d;strokeColor=#C525FF;" edge="1" parent="E6C13S41uyOyiJszludX-77" source="E6C13S41uyOyiJszludX-10" target="E6C13S41uyOyiJszludX-47">
          <mxGeometry relative="1" as="geometry">
            <mxPoint x="620" y="350" as="targetPoint" />
            <Array as="points">
              <mxPoint x="180" y="95" />
              <mxPoint x="180" y="358" />
              <mxPoint x="630" y="358" />
            </Array>
          </mxGeometry>
        </mxCell>
        <mxCell id="E6C13S41uyOyiJszludX-56" style="edgeStyle=orthogonalEdgeStyle;rounded=0;orthogonalLoop=1;jettySize=auto;html=1;exitX=1.006;exitY=0.85;exitDx=0;exitDy=0;exitPerimeter=0;fillColor=#fa6800;strokeColor=#0033ff;" edge="1" parent="E6C13S41uyOyiJszludX-77" source="E6C13S41uyOyiJszludX-35" target="E6C13S41uyOyiJszludX-46">
          <mxGeometry relative="1" as="geometry">
            <Array as="points">
              <mxPoint x="560" y="529" />
              <mxPoint x="560" y="330" />
            </Array>
          </mxGeometry>
        </mxCell>
        <mxCell id="E6C13S41uyOyiJszludX-60" value="2" style="text;html=1;align=center;verticalAlign=middle;whiteSpace=wrap;rounded=0;" vertex="1" parent="E6C13S41uyOyiJszludX-77">
          <mxGeometry x="450" y="500" width="60" height="30" as="geometry" />
        </mxCell>
        <mxCell id="E6C13S41uyOyiJszludX-63" value="" style="endArrow=none;html=1;rounded=0;" edge="1" parent="E6C13S41uyOyiJszludX-77">
          <mxGeometry width="50" height="50" relative="1" as="geometry">
            <mxPoint x="380" y="370" as="sourcePoint" />
            <mxPoint x="390" y="350" as="targetPoint" />
          </mxGeometry>
        </mxCell>
        <mxCell id="E6C13S41uyOyiJszludX-64" value="" style="endArrow=none;html=1;rounded=0;" edge="1" parent="E6C13S41uyOyiJszludX-77">
          <mxGeometry width="50" height="50" relative="1" as="geometry">
            <mxPoint x="480" y="540" as="sourcePoint" />
            <mxPoint x="490" y="520" as="targetPoint" />
          </mxGeometry>
        </mxCell>
        <mxCell id="E6C13S41uyOyiJszludX-65" value="2" style="text;html=1;align=center;verticalAlign=middle;whiteSpace=wrap;rounded=0;" vertex="1" parent="E6C13S41uyOyiJszludX-77">
          <mxGeometry x="350" y="330.63" width="60" height="30" as="geometry" />
        </mxCell>
        <mxCell id="E6C13S41uyOyiJszludX-67" style="edgeStyle=orthogonalEdgeStyle;rounded=0;orthogonalLoop=1;jettySize=auto;html=1;endArrow=none;endFill=0;fillColor=#fff2cc;strokeColor=#B80909;" edge="1" parent="E6C13S41uyOyiJszludX-77" source="E6C13S41uyOyiJszludX-66" target="E6C13S41uyOyiJszludX-2">
          <mxGeometry relative="1" as="geometry">
            <Array as="points">
              <mxPoint y="465" />
              <mxPoint y="15" />
            </Array>
          </mxGeometry>
        </mxCell>
        <mxCell id="E6C13S41uyOyiJszludX-69" style="edgeStyle=orthogonalEdgeStyle;rounded=0;orthogonalLoop=1;jettySize=auto;html=1;entryX=0;entryY=0.5;entryDx=0;entryDy=0;fillColor=#76608a;strokeColor=#432D57;" edge="1" parent="E6C13S41uyOyiJszludX-77" source="E6C13S41uyOyiJszludX-7" target="E6C13S41uyOyiJszludX-39">
          <mxGeometry relative="1" as="geometry">
            <Array as="points">
              <mxPoint x="460" y="115" />
              <mxPoint x="460" y="260" />
              <mxPoint x="210" y="260" />
              <mxPoint x="210" y="505" />
            </Array>
          </mxGeometry>
        </mxCell>
        <mxCell id="E6C13S41uyOyiJszludX-75" value="4" style="text;html=1;align=center;verticalAlign=middle;whiteSpace=wrap;rounded=0;" vertex="1" parent="E6C13S41uyOyiJszludX-77">
          <mxGeometry x="720" y="465" width="60" height="30" as="geometry" />
        </mxCell>
        <mxCell id="E6C13S41uyOyiJszludX-76" value="Decodificador" style="shape=process;whiteSpace=wrap;html=1;backgroundOutline=1;" vertex="1" parent="E6C13S41uyOyiJszludX-77">
          <mxGeometry x="670" y="520" width="120" height="60" as="geometry" />
        </mxCell>
        <mxCell id="E6C13S41uyOyiJszludX-82" style="edgeStyle=orthogonalEdgeStyle;rounded=0;orthogonalLoop=1;jettySize=auto;html=1;" edge="1" parent="1" source="E6C13S41uyOyiJszludX-76">
          <mxGeometry relative="1" as="geometry">
            <mxPoint x="355" y="820" as="targetPoint" />
            <Array as="points">
              <mxPoint x="770" y="730" />
              <mxPoint x="355" y="730" />
            </Array>
          </mxGeometry>
        </mxCell>
        <mxCell id="E6C13S41uyOyiJszludX-83" value="Resultado" style="rounded=0;whiteSpace=wrap;html=1;" vertex="1" parent="1">
          <mxGeometry x="290" y="820" width="120" height="60" as="geometry" />
        </mxCell>
      </root>
    </mxGraphModel>
  </diagram>
</mxfile>
